# xmcd
#
# Track frame offsets: 
#        150
#        17847
#        36608
#        53921
#        72956
#        89421
#
# Disc length: 1430 seconds
#
# Revision: 0
# Processed by: cddbd v1.5.2PL0 Copyright (c) Steve Scherf et al.
# Submitted via: ExactAudioCopyFreeDBPlugin 1.0
#
DISCID=51059406
DTITLE=Pascal Bokar - American Trails
DYEAR=2019
DGENRE=Blues
TTITLE0=The Blues Don't Like Nobody
TTITLE1=I Wanna See You In My Dreams
TTITLE2=I Can Tell
TTITLE3=Your Smile Inside My Nights
TTITLE4=Let It Groove
TTITLE5=Everytime I See You There
EXTD=
EXTT0=
EXTT1=
EXTT2=
EXTT3=
EXTT4=
EXTT5=
PLAYORDER=
